<svg xmlns="http://www.w3.org/2000/svg" viewBox="0 0 245.54 147.96"><defs><style>.cls-1{fill:#178fcc;}.cls-1,.cls-3{fill-rule:evenodd;}.cls-2{fill:#178fcc;}.cls-3{fill:#3da8e0;}</style></defs><g id="Capa_2" data-name="Capa 2"><g id="Layer_1" data-name="Layer 1"><path class="cls-1" d="M240.54,72.29a20.19,20.19,0,0,1-20.19,20.19c-21,0-28.6,7.88-28.6,30.29a20.18,20.18,0,0,1-14.43,19.35c-.46.14-.94.26-1.42.37l-.67.13-.72.12-.74.1-.65,0-.52,0c-.35,0-.69,0-1,0a20.19,20.19,0,0,1-20.19-20.19c0-10.67-1.5-18.72-6.72-23.84a18.38,18.38,0,0,0-3-2.37A22.63,22.63,0,0,0,138.56,95c-.45-.19-.9-.36-1.38-.52q-.35-.14-.72-.24c-.49-.16-1-.3-1.51-.43l-.79-.2c-.53-.12-1.08-.24-1.65-.34a54.19,54.19,0,0,0-9.74-.78c-21,0-28.6,7.88-28.6,30.29a20.19,20.19,0,1,1-40.38,0c0-22.41-7.63-30.29-28.6-30.29A20.19,20.19,0,1,1,45.38,72.29c0,19.52,5,30.29,28.6,30.29s28.6-10.77,28.6-30.29c0-23.54-9.22-26.91-28.6-26.91A20.19,20.19,0,0,1,53.79,25.19c0-.35,0-.69,0-1s0-.53,0-.79.07-.67.12-1a20.19,20.19,0,0,1,39.94-.3c0,.26.08.51.1.77a5.51,5.51,0,0,1,.06.57c0,.2,0,.41,0,.62,0,.39,0,.78,0,1.17,0,.92,0,1.81,0,2.68,0,.37,0,.75,0,1.11a.81.81,0,0,0,0,.16c0,.34,0,.68,0,1,.1,1.7.27,3.28.5,4.75.06.35.11.69.18,1,.11.6.23,1.17.37,1.72,0,.22.11.44.17.66.13.49.27.95.42,1.4l.24.69c0,.14.1.27.16.4a5.72,5.72,0,0,0,.24.57A15.9,15.9,0,0,0,98,44l.3.44c.23.32.47.62.72.92a5,5,0,0,0,.37.42l.39.41c.25.25.51.5.78.74A15,15,0,0,0,101.94,48l.43.28a15.47,15.47,0,0,0,1.66.92l.52.24c.34.15.69.29,1,.43s.55.21.83.3c4.12,1.4,9.48,2,16.34,2,22.14,0,28.6-5.77,28.6-26.91a20.19,20.19,0,1,1,20.19,20.19c-19.38,0-28.6,3.37-28.6,26.91a57.58,57.58,0,0,0,1.31,13.37,28.66,28.66,0,0,0,.86,2.92l.21.59a2.44,2.44,0,0,0,.1.24c.12.32.25.64.39.94s.15.36.24.54.27.56.41.83.34.63.52.93.34.56.53.83.36.54.55.79.39.51.6.75.41.49.63.72a3.22,3.22,0,0,0,.32.32,6,6,0,0,0,.51.5c.12.12.24.22.36.33a3.57,3.57,0,0,0,.37.31c.17.15.34.28.51.42A18.67,18.67,0,0,0,153,98.73l.76.43.17.1c.26.14.53.27.8.4a22.07,22.07,0,0,0,2.52,1c.23.08.46.16.69.22l.51.16.71.19.63.16,1.13.25,1.18.22,1.11.17q1.42.21,3,.33.65.06,1.32.09l1.13,0,1.22,0,1.7,0c1.23,0,2.4,0,3.52-.09,20.56-1,25.08-11.69,25.08-30.2a20.19,20.19,0,1,1,40.38,0Z"/><path class="cls-2" d="M238.16,54.48a25.19,25.19,0,0,0-43,17.81c0,17.49-3.4,25.29-23.6,25.29-18.31,0-23.6-5.67-23.6-25.29,0-12.77,2.94-16.61,5.16-18.38,3.13-2.51,8.48-3.53,18.44-3.53a25.19,25.19,0,1,0-25.19-25.19c0,9.42-1.36,14.88-4.41,17.73s-9,4.18-19.19,4.18-16.09-1.29-19.19-4.18-4.41-8.31-4.41-17.73A25.19,25.19,0,1,0,74,50.38c10,0,15.31,1,18.44,3.53,2.22,1.77,5.16,5.61,5.16,18.38,0,17.49-3.41,25.29-23.6,25.29s-23.6-7.8-23.6-25.29A25.19,25.19,0,1,0,25.19,97.48c18.31,0,23.6,5.68,23.6,25.29a25.19,25.19,0,1,0,50.38,0c0-19.61,5.29-25.29,23.6-25.29,20.2,0,23.6,7.8,23.6,25.29a25.19,25.19,0,1,0,50.38,0c0-19.61,5.29-25.29,23.6-25.29a25.19,25.19,0,0,0,17.81-43Zm-17.81,38c-21,0-28.6,7.88-28.6,30.29a20.18,20.18,0,0,1-14.43,19.35c-.46.14-.94.26-1.42.37-.22,0-.44.1-.67.13l-.72.12-.74.1-.65,0-.52,0c-.35,0-.69,0-1,0a20.19,20.19,0,0,1-20.19-20.19c0-10.67-1.5-18.72-6.72-23.84a18.38,18.38,0,0,0-3-2.37A22.63,22.63,0,0,0,138.56,95c-.45-.18-.9-.35-1.38-.52q-.35-.14-.72-.24c-.49-.15-1-.3-1.51-.43l-.79-.2c-.53-.12-1.08-.23-1.65-.34a54.19,54.19,0,0,0-9.74-.78c-21,0-28.6,7.88-28.6,30.29a20.19,20.19,0,1,1-40.38,0c0-22.41-7.63-30.29-28.6-30.29A20.19,20.19,0,1,1,45.38,72.29c0,19.52,5,30.29,28.6,30.29s28.6-10.77,28.6-30.29c0-23.54-9.22-26.91-28.6-26.91A20.19,20.19,0,0,1,53.79,25.19c0-.35,0-.69,0-1s0-.53,0-.79.07-.67.12-1a20.19,20.19,0,0,1,39.94-.3c0,.26.08.51.1.77l.06.57c0,.2,0,.41,0,.62,0,.39,0,.78,0,1.17,0,.92,0,1.81,0,2.68,0,.37,0,.75,0,1.11a.81.81,0,0,0,0,.16c0,.34,0,.68,0,1,.1,1.7.27,3.28.5,4.75.06.35.11.69.18,1,.11.6.23,1.17.37,1.72,0,.22.11.44.17.66.13.49.27.95.42,1.4l.24.69c0,.14.1.27.16.4a5.72,5.72,0,0,0,.24.57A15.9,15.9,0,0,0,98,44l.3.44c.23.32.47.62.72.92a5,5,0,0,0,.37.42l.39.41c.25.25.51.5.78.74A15,15,0,0,0,101.94,48l.43.28a15.47,15.47,0,0,0,1.66.92l.52.24c.34.15.69.29,1,.43s.55.21.83.3c4.12,1.4,9.48,2,16.34,2,22.14,0,28.6-5.77,28.6-26.91a20.19,20.19,0,1,1,20.19,20.19c-19.38,0-28.6,3.37-28.6,26.91a57.58,57.58,0,0,0,1.31,13.37,28.66,28.66,0,0,0,.86,2.92l.21.59a2.44,2.44,0,0,0,.1.24c.12.32.25.64.39.94s.15.36.24.54.27.56.41.83.34.63.52.93.34.56.53.83.36.54.55.79.39.51.6.75.41.49.63.72a3.22,3.22,0,0,0,.32.32,6,6,0,0,0,.51.5c.12.12.24.22.36.33a3.57,3.57,0,0,0,.37.31c.17.15.34.28.51.42A18.67,18.67,0,0,0,153,98.73l.76.43.17.1c.26.14.53.27.8.4a22.07,22.07,0,0,0,2.52,1c.23.08.46.16.69.22l.51.16.71.19.63.16,1.13.25,1.18.22,1.11.17q1.42.21,3,.33.65.06,1.32.09l1.13,0,1.22,0,1.7,0c1.23,0,2.4,0,3.52-.09,20.56-1,25.08-11.69,25.08-30.2a20.19,20.19,0,1,1,20.19,20.19Z"/><path class="cls-3" d="M176.27,116.49a20.52,20.52,0,0,0-1.19-14c-1.12.06-2.29.09-3.52.09l-1.7,0-1.22,0-1.13,0q-.67,0-1.32-.09-1.55-.12-3-.33l-1.11-.17-1.18-.22-1.13-.25-.63-.16-.71-.19-.51-.16-.69-.22a22.07,22.07,0,0,1-2.52-1c-.27-.13-.54-.26-.8-.4l-.17-.1-.76-.43a18.67,18.67,0,0,1-1.63-1.11c-.17-.14-.34-.27-.51-.42a3.57,3.57,0,0,1-.37-.31c-.12-.11-.24-.21-.36-.33s-.35-.33-.51-.5a3.22,3.22,0,0,1-.32-.32q-.33-.34-.63-.72c-.21-.24-.4-.49-.6-.75s-.37-.52-.55-.79-.36-.54-.53-.83-.35-.61-.52-.93-.28-.55-.41-.83-.17-.36-.24-.54-.27-.62-.39-.94a2.44,2.44,0,0,1-.1-.24c-.07-.19-.15-.39-.21-.59a28.66,28.66,0,0,1-.86-2.92,51.08,51.08,0,0,0-6.88.6c-25.48,3.92-31.39-18.85-30.65-36l-.31-.11c-.28-.09-.56-.19-.83-.3s-.71-.27-1-.43a4.9,4.9,0,0,1-.52-.24,15.47,15.47,0,0,1-1.66-.92l-.43-.28a15,15,0,0,1-1.39-1.06c-.27-.24-.53-.48-.78-.74a5,5,0,0,1-.39-.41L99,45.35c-.25-.3-.49-.6-.72-.92L98,44a15.9,15.9,0,0,1-1.4-2.62q-.14-.28-.24-.57c-.06-.13-.11-.26-.16-.4L96,39.71c-.15-.45-.29-.91-.42-1.4-.06-.21-.12-.43-.17-.66-.14-.55-.26-1.12-.37-1.72-.07-.34-.12-.68-.18-1-.23-1.47-.4-3-.5-4.75,0-.33,0-.67,0-1a.81.81,0,0,1,0-.16c0-.36,0-.74,0-1.11,0-.87,0-1.76,0-2.68,0-.39,0-.78,0-1.17,0-.21,0-.42,0-.62a5.51,5.51,0,0,0-.06-.57c0-.26-.06-.51-.1-.77-8.44-3.67-21.33-4.42-39.94.3-.05.33-.09.67-.12,1s0,.53,0,.79,0,.69,0,1A20.19,20.19,0,0,0,74,45.38c19.38,0,28.6,3.37,28.6,26.91,0,19.52-5,30.29-28.6,30.29s-28.6-10.77-28.6-30.29A20.19,20.19,0,1,0,25.19,92.48c21,0,28.6,7.88,28.6,30.29a20.19,20.19,0,1,0,40.38,0c0-22.41,7.64-30.29,28.6-30.29a54.19,54.19,0,0,1,9.74.78c.57.1,1.12.22,1.65.34l.79.2c.52.13,1,.27,1.51.43q.38.1.72.24c.48.16.93.33,1.38.52a20.55,20.55,0,0,1,3.07,1.57,17,17,0,0,1,3,2.37c5.22,5.12,6.72,13.17,6.72,23.84A20.19,20.19,0,0,0,171.56,143c.35,0,.69,0,1,0l.52,0,.65,0,.74-.1.72-.12.67-.13c.48-.11,1-.23,1.42-.37C173.55,134.21,174.06,124.22,176.27,116.49Z"/></g></g></svg>