<svg xmlns="http://www.w3.org/2000/svg" viewBox="0 0 523.5 272.57"><defs><style>.cls-1,.cls-2{fill:#fff;}.cls-1{fill-rule:evenodd;}</style></defs><g id="Capa_2" data-name="Capa 2"><g id="Layer_1" data-name="Layer 1"><path class="cls-1" d="M291.78,20.19A20.19,20.19,0,1,1,312,40.38c-19.38,0-28.61,3.37-28.61,26.92,0,22.4,7.64,30.28,28.61,30.28,23.57,0,28.6-10.77,28.6-30.28a20.19,20.19,0,1,1,20.19,20.19c-21,0-28.61,7.88-28.61,30.28a20.19,20.19,0,1,1-40.37,0c0-19.51-5-30.28-28.61-30.28-21,0-28.6,7.88-28.6,30.28a20.19,20.19,0,1,1-40.38,0c0-22.4-7.63-30.28-28.6-30.28A20.19,20.19,0,1,1,185.78,67.3c0,19.51,5,30.28,28.6,30.28S243,86.81,243,67.3c0-23.55-9.23-26.92-28.61-26.92a20.19,20.19,0,1,1,20.19-20.19c0,21.15,6.46,26.92,28.6,26.92S291.78,41.34,291.78,20.19Z"/><path class="cls-1" d="M284.68,80.66c3,12.28,11.2,16.92,27.29,16.92,1.22,0,2.39,0,3.52-.09a20.54,20.54,0,0,1,1.18,14c-2.21,7.73-2.72,17.71,1.05,25.63a20.21,20.21,0,0,1-25.94-19.36c0-19.51-5-30.28-28.6-30.28-21,0-28.61,7.88-28.61,30.28a20.19,20.19,0,1,1-40.38,0c0-22.4-7.63-30.28-28.6-30.28A20.19,20.19,0,1,1,185.78,67.3c0,19.51,5,30.28,28.6,30.28S243,86.81,243,67.3c0-23.55-9.22-26.92-28.6-26.92a20.18,20.18,0,0,1-20-23c18.61-4.73,31.5-4,39.94-.31a20.23,20.23,0,0,1,.24,3.13c0,14.75,3.15,22,12.58,25.07-.74,17.16,5.17,39.93,30.65,36A54.41,54.41,0,0,1,284.68,80.66Z"/><path class="cls-2" d="M67.9,205.34a7.22,7.22,0,0,1,7.18,4.34l24,44.86,22.77-45.13a9,9,0,0,1,2.44-2.91,7.21,7.21,0,0,1,4.47-1.16,8.44,8.44,0,0,1,5.22,1.49,4.84,4.84,0,0,1,2,4.07,7.81,7.81,0,0,1-1,3.39l-28.6,53.8a9.33,9.33,0,0,1-2.78,3.39,7.65,7.65,0,0,1-4.4,1.08,7.51,7.51,0,0,1-7-4.34L67.9,223.91,43.77,268.22a9.61,9.61,0,0,1-2.91,3.32,7.45,7.45,0,0,1-4.13,1,7.93,7.93,0,0,1-4.54-1.08,8.4,8.4,0,0,1-2.65-3.39L.81,214.29a7,7,0,0,1-.67-1.76A7.73,7.73,0,0,1,0,210.9a4.82,4.82,0,0,1,2-4.07,8.39,8.39,0,0,1,5.21-1.49,8,8,0,0,1,4.47,1.09,7.45,7.45,0,0,1,2.58,3l22.5,45,24-44.72a8,8,0,0,1,2.78-3.25A8.09,8.09,0,0,1,67.9,205.34Z"/><path class="cls-2" d="M171.29,189.22q0,6.5-7.86,6.5t-7.86-6.5q0-6.51,7.86-6.51T171.29,189.22Zm-15,21.82q0-5.7,7.18-5.7t7.19,5.7v55.83q0,5.69-7.19,5.69t-7.18-5.69Z"/><path class="cls-2" d="M211,217.13v49.74q0,5.69-6.91,5.69-7.46,0-7.46-5.69V196.13q0-20.32,33.07-20.33h11.52q6.78,0,6.78,5.29t-6.78,5.42H229.7q-18.7,0-18.7,9.48v10.57h30.22q6.78,0,6.78,5.29t-6.78,5.28Z"/><path class="cls-2" d="M348,227.57q0-10.44-20.19-10.44H300.71q-20.06,0-20,10.44v39.3q0,5.69-7.19,5.69t-7.18-5.69v-39.3q0-21.56,35-21.55h26.15q35,0,35,21.55v39.3q0,5.69-7.19,5.69T348,266.87Z"/><path class="cls-2" d="M403.16,189.22q0,6.5-7.86,6.5t-7.86-6.5q0-6.51,7.86-6.51T403.16,189.22Zm-15,21.82q0-5.7,7.18-5.7t7.19,5.7v55.83q0,5.69-7.19,5.69t-7.18-5.69Z"/><path class="cls-2" d="M474.72,246.13l-36.05,24.53a9,9,0,0,1-5.69,1.9q-7.05,0-7.05-5.42a4.67,4.67,0,0,1,.68-2.3,8.61,8.61,0,0,1,2.57-2.58l34.69-23.71-32.66-22.64a7.7,7.7,0,0,1-2.71-2.71,5.52,5.52,0,0,1-.67-2.44q0-5.41,7.31-5.42a9.2,9.2,0,0,1,3.19.48,11.36,11.36,0,0,1,2.78,1.56l34.55,24,35.1-24a11.36,11.36,0,0,1,2.78-1.56,8.32,8.32,0,0,1,2.92-.48q7,0,7,5.56a9.78,9.78,0,0,1-.61,2.17,6.88,6.88,0,0,1-2.64,2.71l-33.74,23L520.11,262a10.6,10.6,0,0,1,2.65,2.78,4.87,4.87,0,0,1,.74,2.37q0,5.42-7.32,5.42a11.39,11.39,0,0,1-3.11-.41,8.07,8.07,0,0,1-3-1.62Z"/></g></g></svg>