<svg xmlns="http://www.w3.org/2000/svg" xmlns:xlink="http://www.w3.org/1999/xlink" width="389.302" height="202.696" viewBox="0 0 389.302 202.696">
  <defs>
    <clipPath id="clip-path">
      <rect id="Rectángulo_12" data-name="Rectángulo 12" width="389.302" height="202.696" fill="none"/>
    </clipPath>
  </defs>
  <g id="Wifnix" clip-path="url(#clip-path)">
    <path id="Trazado_15" data-name="Trazado 15" d="M254.254,15.014a15.013,15.013,0,1,1,15.014,15.014c-14.412,0-21.269,2.51-21.269,20.018,0,16.66,5.677,22.521,21.269,22.521,17.529,0,21.27-8.009,21.27-22.521A15.013,15.013,0,1,1,305.55,65.06c-15.591,0-21.27,5.861-21.27,22.521a15.013,15.013,0,1,1-30.026,0c0-14.511-3.741-22.521-21.27-22.521-15.591,0-21.269,5.861-21.269,22.521a15.014,15.014,0,0,1-30.029,0c0-16.66-5.677-22.521-21.269-22.521a15.014,15.014,0,1,1,15.014-15.014c0,14.512,3.741,22.521,21.269,22.521s21.27-8.009,21.27-22.521c0-17.508-6.858-20.018-21.27-20.018a15.014,15.014,0,1,1,15.014-15.014c0,15.726,4.8,20.018,21.269,20.018s21.27-4.292,21.27-20.018" transform="translate(-37.274)" fill="#fff" fill-rule="evenodd"/>
    <path id="Trazado_16" data-name="Trazado 16" d="M248.974,63.592c2.2,9.131,8.33,12.58,20.293,12.58.909,0,1.78-.025,2.618-.066a15.269,15.269,0,0,1,.88,10.416c-1.643,5.747-2.023,13.171.784,19.058a15.021,15.021,0,0,1-19.3-14.394c0-14.511-3.742-22.52-21.27-22.52-15.591,0-21.27,5.861-21.27,22.52a15.014,15.014,0,1,1-30.029,0c0-16.659-5.677-22.52-21.269-22.52A15.014,15.014,0,1,1,175.43,53.652c0,14.51,3.742,22.521,21.27,22.521s21.269-8.011,21.269-22.521c0-17.508-6.857-20.018-21.269-20.018a15.014,15.014,0,0,1-15.014-15.014,15.241,15.241,0,0,1,.146-2.1c13.84-3.513,23.425-2.957,29.7-.229a15.177,15.177,0,0,1,.178,2.326c0,10.973,2.342,16.378,9.35,18.644-.55,12.759,3.844,29.691,22.794,26.775a38.128,38.128,0,0,1,5.116-.446" transform="translate(-37.274 -3.606)" fill="#f2f2f2" fill-rule="evenodd"/>
    <path id="Trazado_17" data-name="Trazado 17" d="M50.49,205.344a5.35,5.35,0,0,1,5.341,3.224l17.838,33.357L90.6,208.367a6.722,6.722,0,0,1,1.814-2.167,5.4,5.4,0,0,1,3.326-.856,6.263,6.263,0,0,1,3.88,1.108,3.6,3.6,0,0,1,1.461,3.024,5.766,5.766,0,0,1-.7,2.519L79.111,252a6.941,6.941,0,0,1-2.066,2.52,5.691,5.691,0,0,1-3.275.806A5.579,5.579,0,0,1,68.53,252.1L50.49,219.15,32.551,252.1a7.277,7.277,0,0,1-2.166,2.469,5.554,5.554,0,0,1-3.074.756,5.894,5.894,0,0,1-3.376-.806A6.158,6.158,0,0,1,21.97,252L.6,211.994a5.478,5.478,0,0,1-.5-1.31,6.157,6.157,0,0,1-.1-1.209,3.592,3.592,0,0,1,1.461-3.024,6.261,6.261,0,0,1,3.88-1.108,5.937,5.937,0,0,1,3.326.806,5.627,5.627,0,0,1,1.914,2.217l16.73,33.459,17.837-33.258a5.352,5.352,0,0,1,5.342-3.224" transform="translate(0 -52.64)" fill="#fff"/>
    <path id="Trazado_18" data-name="Trazado 18" d="M167.263,187.549q0,4.837-5.844,4.837t-5.846-4.837q0-4.838,5.846-4.837t5.844,4.837m-11.186,16.225q0-4.233,5.342-4.232t5.341,4.232v41.52q0,4.233-5.341,4.233t-5.342-4.233Z" transform="translate(-39.881 -46.838)" fill="#fff"/>
    <path id="Trazado_19" data-name="Trazado 19" d="M207.317,206.538v36.985q0,4.233-5.139,4.234-5.544,0-5.543-4.234V190.917q0-15.117,24.59-15.116h8.566q5.037,0,5.039,3.93,0,4.031-5.039,4.031h-8.566q-13.908,0-13.908,7.054v7.861H229.79q5.037,0,5.039,3.931t-5.039,3.93Z" transform="translate(-50.407 -45.067)" fill="#fff"/>
    <path id="Trazado_20" data-name="Trazado 20" d="M327.061,222.045q0-7.759-15.017-7.76H291.889q-14.915,0-14.915,7.76v29.225q0,4.233-5.34,4.233t-5.342-4.233V222.045q0-16.024,26-16.024h19.449q26,0,26,16.024v29.225q0,4.233-5.342,4.233t-5.341-4.233Z" transform="translate(-68.264 -52.813)" fill="#fff"/>
    <path id="Trazado_21" data-name="Trazado 21" d="M399.134,187.549q0,4.837-5.845,4.837t-5.846-4.837q0-4.838,5.846-4.837t5.845,4.837m-11.187,16.225q0-4.233,5.342-4.232t5.341,4.232v41.52q0,4.233-5.341,4.233t-5.342-4.233Z" transform="translate(-99.321 -46.838)" fill="#fff"/>
    <path id="Trazado_22" data-name="Trazado 22" d="M462.209,235.678,435.4,253.918a6.681,6.681,0,0,1-4.233,1.411q-5.241,0-5.241-4.031a3.533,3.533,0,0,1,.5-1.713,6.375,6.375,0,0,1,1.915-1.915l25.8-17.636L429.859,213.2a5.688,5.688,0,0,1-2.015-2.016,4.105,4.105,0,0,1-.5-1.814q0-4.029,5.443-4.031a6.91,6.91,0,0,1,2.368.352,8.822,8.822,0,0,1,2.067,1.159l25.7,17.839,26.1-17.839a8.745,8.745,0,0,1,2.066-1.159,6.238,6.238,0,0,1,2.166-.352q5.24,0,5.24,4.132a7.517,7.517,0,0,1-.453,1.612,5.15,5.15,0,0,1-1.965,2.016l-25.094,17.132,24.993,17.233a7.837,7.837,0,0,1,1.965,2.067,3.587,3.587,0,0,1,.554,1.763q0,4.031-5.441,4.031a8.8,8.8,0,0,1-2.318-.3,6.053,6.053,0,0,1-2.218-1.21Z" transform="translate(-109.187 -52.64)" fill="#fff"/>
  </g>
</svg>
